<svg width="24" height="24" viewBox="0 0 24 24" fill="none" xmlns="http://www.w3.org/2000/svg">
<path d="M8.33441 6.48167L16.3344 7.48489L20.8617 3.80643L16.1029 1.8L7.69132 2.00579L3.34406 4.3209L8.33441 6.48167Z" fill="#7CFFF9"/>
<path d="M8.33443 6.48166L6.328 12.0637L17.9036 12.4495L15.7685 6.48166H8.33443Z" fill="#00A5EC"/>
<path d="M15.7686 6.48166L20.8618 3.80642L24.0001 7.15047L17.6206 12.1408L15.7686 6.48166Z" fill="#00DBFF"/>
<path d="M3.34405 4.3209L0 8.25659L6.32797 12.0637L8.3344 6.48167L3.34405 4.3209Z" fill="#00DCFF"/>
<path d="M6.328 12.0637L12.373 22.4817L17.6206 12.1408L6.328 12.0637Z" fill="#105BC4"/>
<path d="M0 8.25659L12.373 22.4817L6.32797 12.0637L0 8.25659Z" fill="#2181E5"/>
<path d="M24.0001 7.15047L12.373 22.4817L17.6206 12.1408L24.0001 7.15047Z" fill="#00AFFF"/>
<path d="M3.34406 4.3209L20.8617 3.80643L16.1029 1.8L7.69132 2.00579L3.34406 4.3209Z" fill="#B6FFF9"/>
<path d="M6.328 12.0637C6.328 12.0637 6.7653 9.2598 8.33444 6.48166C7.94858 8.8225 6.328 12.0637 6.328 12.0637Z" fill="#7CFFF9"/>
<path d="M15.7685 6.48166C15.537 7.9479 17.3377 11.8321 17.6206 12.1408C17.5435 10.2116 15.7685 6.48166 15.7685 6.48166Z" fill="#7CFFF9"/>
</svg>
